<?xml version="1.0" encoding="utf-8"?>
<svg version="1.1" xmlns:xlink="http://www.w3.org/1999/xlink" width="11px" height="6px" xmlns="http://www.w3.org/2000/svg">
  <g transform="matrix(1 0 0 1 1530 1079 )">
    <path d="M 10.7958984375 4.864583333333333  C 10.931966145833334 4.996527777777776  11 5.152777777777777  11 5.333333333333333  C 11 5.513888888888888  10.931966145833334 5.670138888888888  10.7958984375 5.802083333333333  C 10.659830729166668 5.934027777777779  10.498697916666668 6  10.3125 6  L 0.6875 6  C 0.5013020833333334 6  0.34016927083333337 5.934027777777779  0.2041015625 5.802083333333333  C 0.06803385416666666 5.670138888888888  0 5.513888888888888  0 5.333333333333333  C 0 5.152777777777777  0.06803385416666666 4.996527777777776  0.2041015625 4.864583333333333  L 5.0166015625 0.19791666666666696  C 5.152669270833334 0.06597222222222143  5.313802083333334 0  5.5 0  C 5.686197916666667 0  5.847330729166667 0.06597222222222143  5.9833984375 0.19791666666666696  L 10.7958984375 4.864583333333333  Z " fill-rule="nonzero" fill="#169bd5" stroke="none" transform="matrix(1 0 0 1 -1530 -1079 )" />
  </g>
</svg>