<?xml version="1.0" encoding="utf-8"?>
<svg version="1.1" xmlns:xlink="http://www.w3.org/1999/xlink" width="19px" height="19px" xmlns="http://www.w3.org/2000/svg">
  <g transform="matrix(1 0 0 1 -1140 -716 )">
    <path d="M 1149.5 716  C 1154.82 716  1159 720.18  1159 725.5  C 1159 730.82  1154.82 735  1149.5 735  C 1144.18 735  1140 730.82  1140 725.5  C 1140 720.18  1144.18 716  1149.5 716  Z " fill-rule="nonzero" fill="#2a577e" stroke="none" fill-opacity="0.2" />
    <path d="M 1149.5 716.5  C 1154.54 716.5  1158.5 720.46  1158.5 725.5  C 1158.5 730.54  1154.54 734.5  1149.5 734.5  C 1144.46 734.5  1140.5 730.54  1140.5 725.5  C 1140.5 720.46  1144.46 716.5  1149.5 716.5  Z " stroke-width="1" stroke="#c0c4cc" fill="none" />
  </g>
</svg>