<?xml version="1.0" encoding="utf-8"?>
<svg version="1.1" xmlns:xlink="http://www.w3.org/1999/xlink" width="35px" height="35px" xmlns="http://www.w3.org/2000/svg">
  <g transform="matrix(1 0 0 1 1259 428 )">
    <path d="M -1258 -425  A 2 2 0 0 1 -1256 -427 L -1227 -427  A 2 2 0 0 1 -1225 -425 L -1225 -396  A 2 2 0 0 1 -1227 -394 L -1256 -394  A 2 2 0 0 1 -1258 -396 L -1258 -425  Z " fill-rule="nonzero" fill="#2391ff" stroke="none" fill-opacity="0.4980392156862745" />
    <path d="M -1258.5 -425  A 2.5 2.5 0 0 1 -1256 -427.5 L -1227 -427.5  A 2.5 2.5 0 0 1 -1224.5 -425 L -1224.5 -396  A 2.5 2.5 0 0 1 -1227 -393.5 L -1256 -393.5  A 2.5 2.5 0 0 1 -1258.5 -396 L -1258.5 -425  Z " stroke-width="1" stroke="#2391ff" fill="none" stroke-opacity="0.4980392156862745" />
  </g>
</svg>