<?xml version="1.0" encoding="utf-8"?>
<svg version="1.1" xmlns:xlink="http://www.w3.org/1999/xlink" width="80px" height="35px" xmlns="http://www.w3.org/2000/svg">
  <g transform="matrix(1 0 0 1 1357 428 )">
    <path d="M -1356 -425  A 2 2 0 0 1 -1354 -427 L -1280 -427  A 2 2 0 0 1 -1278 -425 L -1278 -396  A 2 2 0 0 1 -1280 -394 L -1354 -394  A 2 2 0 0 1 -1356 -396 L -1356 -425  Z " fill-rule="nonzero" fill="#2391ff" stroke="none" fill-opacity="0.09803921568627451" />
    <path d="M -1356.5 -425  A 2.5 2.5 0 0 1 -1354 -427.5 L -1280 -427.5  A 2.5 2.5 0 0 1 -1277.5 -425 L -1277.5 -396  A 2.5 2.5 0 0 1 -1280 -393.5 L -1354 -393.5  A 2.5 2.5 0 0 1 -1356.5 -396 L -1356.5 -425  Z " stroke-width="1" stroke="#2391ff" fill="none" stroke-opacity="0.4980392156862745" />
  </g>
</svg>