<?xml version="1.0" encoding="utf-8"?>
<svg version="1.1" xmlns:xlink="http://www.w3.org/1999/xlink" width="362px" height="66px" xmlns="http://www.w3.org/2000/svg">
  <g transform="matrix(1 0 0 1 1 -19 )">
    <path d="M 0.252816901408482 62.40000000000009  C 0.252816901408482 62.40000000000009  4.834626915239071 49.15199999999993  16.938732394366045 44  C 29.851112001283276 38.503965629715026  30.705480359338278 47.888308572611095  45.254225352112606 44  C 65.78847849312 38.51200000000006  60.22139213992611 24.034395776193833  78.62605633802798 24.40000000000009  C 95.8812026132755 24.742769326988196  94.51954281817102 46.21416690643446  108.96408450704219 44  C 131.64876251922905 40.522723640556706  125.09860649654225 0.00474864598345448  142.3359154929578 0.8000000000001819  C 161.50504461676618 1.6843767837660835  148.44167514161168 44.82819928378888  173.68521126760547 52  C 186.70831487288805 55.69992156794069  188.996445825896 36.405742367717835  204.02323943661972 38.80000000000018  C 213.1425628771982 40.253005232818055  208.66173126057728 47.028162198044356  218.18098591549287 52  C 225.70185469477408 55.928095324256105  225.51744299739252 56.57403771335214  233.8556338028167 55.59999999999991  C 261.65468347329795 52.35261415740365  254.7083693433968 31.749542977761735  280.8795774647888 32  C 290.2819629579129 32.08998031201395  292.0035211267605 37.86666666666679  297.5654929577463 40.80000000000018  C 302.4532863849764 44.53333333333342  302.75366040560033 49.4303615393909  312.2288732394368 52  C 319.7239008045594 54.03262042050255  319.4389675423273 48.95368205952195  327.39788732394356 50.40000000000009  C 336.80917986880604 52.110247323030535  334.11242024933466 58.088653146427646  343.0725352112674 58.40000000000009  C 351.397788531973 58.68928662607664  358.24154929577475 52  358.24154929577475 52  " stroke-width="2" stroke="#2391ff" fill="none" transform="matrix(1 0 0 1 0 20 )" />
  </g>
</svg>