<?xml version="1.0" encoding="utf-8"?>
<svg version="1.1" xmlns:xlink="http://www.w3.org/1999/xlink" width="362px" height="76px" xmlns="http://www.w3.org/2000/svg">
  <g transform="matrix(1 0 0 1 1 -51 )">
    <path d="M 0.3155321731004279 72.56590108368027  C 0.3155321731004279 72.56590108368027  15.0965377826818 51.25359582902922  25.364130809406266 51.25359582902922  C 25.59354859572567 51.25359582902922  25.818123117667284 51.2589297393073  26.03785437523092 51.26959755986331  C 36.52568847682205 51.774652189314224  33.31345710537334 64.12948855549598  50.88724190041613 64.12948855549598  C 55.17391323779399 64.12948855549598  68.01710327893088 57.9828236988518  76.92042520300933 56.851701350517146  C 85.82374712708778 55.7205790021826  90.66752132224464 43.100213914972755  102.39000547721126 39.39981365958988  C 105.7643587509923 38.334198396857346  119.49310144732213 35.56289863802874  128.5310151393746 40.93047922468804  C 139.15535282382567 47.24016171420453  143.92036024567957 59.801520418963605  153.72605879594767 67.17731822530118  C 158.03681900088904 70.4196689355582  169.423588461875 75.06717163468373  179.3657905950032 70.22364773284062  C 189.3079927281312 65.3801238309976  196.82830776368095 46.59559199404384  205.02234636505534 33.02862451717999  C 211.3714836014445 22.516987521449778  215.96136877974115 13.559518632980485  230.80393482865156 14.090076020948231  C 239.26065679536177 14.390108474087356  247.19927692796713 28.68665486616794  256.2081310337525 40.618445473423435  C 263.0141920278946 49.630920311634895  270.42782779280583 57.29524932707454  279.1376740504216 56.564170249592166  C 280.0077780534448 56.486924733710794  280.85958843160347 56.20096716039632  281.6505635365733 55.7205790021826  C 289.9612228459934 50.76354282223531  297.67616063693737 23.06054631572033  307.5120658624042 23.06054631572033  C 317.3479710878711 23.06054631572033  321.0354796399781 30.0613035556338  333.24509422789635 30.0613035556338  C 348.3568438127548 30.0613035556338  346.57923833175676 0.6641237970596876  358.97200478575314 0.0580582417186406  " stroke-width="2" stroke="#ffc328" fill="none" transform="matrix(1 0 0 1 0 52 )" />
  </g>
</svg>