<?xml version="1.0" encoding="utf-8"?>
<svg version="1.1" xmlns:xlink="http://www.w3.org/1999/xlink" width="462px" height="52px" xmlns="http://www.w3.org/2000/svg">
  <g transform="matrix(1 0 0 1 -780 -123 )">
    <path d="M 781 128  A 4 4 0 0 1 785 124 L 1237 124  A 4 4 0 0 1 1241 128 L 1241 170  A 4 4 0 0 1 1237 174 L 785 174  A 4 4 0 0 1 781 170 L 781 128  Z " fill-rule="nonzero" fill="#2391ff" stroke="none" fill-opacity="0.4980392156862745" />
    <path d="M 780.5 128  A 4.5 4.5 0 0 1 785 123.5 L 1237 123.5  A 4.5 4.5 0 0 1 1241.5 128 L 1241.5 170  A 4.5 4.5 0 0 1 1237 174.5 L 785 174.5  A 4.5 4.5 0 0 1 780.5 170 L 780.5 128  Z " stroke-width="1" stroke="#2391ff" fill="none" stroke-opacity="0.4980392156862745" />
  </g>
</svg>