<?xml version="1.0" encoding="utf-8"?>
<svg version="1.1" xmlns:xlink="http://www.w3.org/1999/xlink" width="362px" height="40px" xmlns="http://www.w3.org/2000/svg">
  <g transform="matrix(1 0 0 1 1 -63 )">
    <path d="M 0.252816901408482 5.466666666666697  C 0.252816901408482 5.466666666666697  6.506126093563509 28.39047385595859  16.938732394366045 29.111111111111086  C 31.297297080389807 30.102935813867248  27.550369975610213 1.9103928654093352  45.254225352112606 0.11111111111108585  C 62.1767895033437 -1.608766297832517  57.98246842974565 17.752167867343246  78.62605633802798 21.688888888888982  C 94.93345178371047 24.798700358818678  93.6174105012069 21.376446862048283  110.50468750000002 15.75  C 129.16153826750892 9.533972427049434  124.0841210586483 0.5220225325186902  141.91718749999998 0.11111111111108585  C 161.5969909098762 -0.3423530207458043  165.66354166666673 10.537037037037067  177.53671875 15.75  C 186.36555897887317 18.66296296296298  191.95054148632622 27.73929773622922  204.02323943661972 24.48888888888905  C 217.1687087288145 20.949651026257925  214.07611805436227 1.3375498913858337  222.13125 2.3333333333333712  C 231.73862270424405 3.521006325417147  221.60672010385184 27.473776493788705  234.84583333333325 33  C 252.4762020884951 40.35920575261696  255.8857034064122 16.845543135465505  280.8795774647888 18.444444444444457  C 290.5266925436297 19.0615870647282  288.8087931056678 27.057045421895396  297.5654929577463 26.26666666666688  C 309.30141375819494 25.207383759817162  309.0038408969556 10.143441739489619  317.11666666666673 12  C 325.96819439947996 14.025604567010987  318.2282081086329 32.40292492126798  327.39788732394356 34.80000000000007  C 334.0380632165531 36.53582955050331  334.9640568095222 24.036382161300935  343.6677083333332 24.48888888888905  C 352.2298845624646 24.934040252759473  358.24154929577475 36.22222222222217  358.24154929577475 36.22222222222217  " stroke-width="2" stroke="#5ad8a6" fill="none" transform="matrix(1 0 0 1 0 64 )" />
  </g>
</svg>