<?xml version="1.0" encoding="utf-8"?>
<svg version="1.1" xmlns:xlink="http://www.w3.org/1999/xlink" width="160px" height="160px" xmlns="http://www.w3.org/2000/svg">
  <g transform="matrix(1 0 0 1 -156 -496 )">
    <path d="M 80 60.103626943005224  L 80 40.207253886010335  L 51.862300518134816 51.8623005181347  L 40.20725388601045 80  L 51.862300518134816 108.1376994818653  L 80 119.79274611398966  L 108.13769948186518 108.1376994818653  L 119.79274611398955 80  L 108.13769948186518 51.8623005181347  L 80 40.207253886010335  L 80 60.103626943005224  L 94.06889119170978 65.93110880829022  L 99.89637305699489 80  L 94.06889119170978 94.06889119170978  L 80 99.89637305699478  L 65.93110880829022 94.06889119170978  L 60.10362694300511 80  L 65.93110880829022 65.93110880829022  L 80 60.103626943005224  Z M 80 20.31088082901556  L 80 0.41450777202072686  L 23.724518134715026 23.724518134715026  L 0.41450777202067 80  L 23.724518134715026 136.27548186528497  L 80 159.58549222797933  L 136.27548186528497 136.27548186528497  L 159.58549222797933 80  L 136.27548186528497 23.724518134715026  L 80 0.41450777202072686  L 80 20.31088082901556  L 122.20659067357519 37.79340932642492  L 139.68911917098444 80  L 122.20659067357519 122.20659067357519  L 80 139.68911917098444  L 37.79340932642481 122.20659067357519  L 20.31088082901556 80  L 37.79340932642481 37.79340932642492  L 80 20.31088082901556  Z " fill-rule="nonzero" fill="#d2dbee" stroke="none" fill-opacity="0.047058823529411764" transform="matrix(1 0 0 1 156 496 )" />
  </g>
</svg>