<?xml version="1.0" encoding="utf-8"?>
<svg version="1.1" xmlns:xlink="http://www.w3.org/1999/xlink" width="200px" height="200px" xmlns="http://www.w3.org/2000/svg">
  <defs>
    <mask fill="white" id="clip944">
      <path d="M 114.49842323651455 85.50157676348545  C 114.49842323651455 85.50157676348545  100.41493775933601 79.66804979253106  100.41493775933601 79.66804979253106  C 100.41493775933601 79.66804979253106  85.50157676348545 85.50157676348545  85.50157676348545 85.50157676348545  C 85.50157676348545 85.50157676348545  79.66804979253106 100.41493775933613  79.66804979253106 100.41493775933613  C 79.66804979253106 100.41493775933613  85.50157676348545 114.49842323651455  85.50157676348545 114.49842323651455  C 85.50157676348545 114.49842323651455  100.41493775933601 120.33195020746894  100.41493775933601 120.33195020746894  C 100.41493775933601 120.33195020746894  114.49842323651455 114.49842323651455  114.49842323651455 114.49842323651455  C 114.49842323651455 114.49842323651455  120.33195020746894 100.41493775933613  120.33195020746894 100.41493775933613  C 120.33195020746894 100.41493775933613  114.49842323651455 85.50157676348545  114.49842323651455 85.50157676348545  Z M 128.581825726141 71.41817427385888  C 128.581825726141 71.41817427385888  100.41493775933601 59.75103734439835  100.41493775933601 59.75103734439835  C 100.41493775933601 59.75103734439835  71.418174273859 71.41817427385888  71.418174273859 71.41817427385888  C 71.418174273859 71.41817427385888  59.75103734439835 100.41493775933613  59.75103734439835 100.41493775933613  C 59.75103734439835 100.41493775933613  71.418174273859 128.581825726141  71.418174273859 128.581825726141  C 71.418174273859 128.581825726141  100.41493775933601 140.24896265560164  100.41493775933601 140.24896265560164  C 100.41493775933601 140.24896265560164  128.581825726141 128.581825726141  128.581825726141 128.581825726141  C 128.581825726141 128.581825726141  140.24896265560164 100.41493775933613  140.24896265560164 100.41493775933613  C 140.24896265560164 100.41493775933613  128.581825726141 71.41817427385888  128.581825726141 71.41817427385888  Z M 142.66531120331956 57.33468879668055  C 142.66531120331956 57.33468879668055  100.41493775933601 39.83402489626553  100.41493775933601 39.83402489626553  C 100.41493775933601 39.83402489626553  57.334688796680446 57.33468879668055  57.334688796680446 57.33468879668055  C 57.334688796680446 57.33468879668055  39.834024896265646 100.41493775933613  39.834024896265646 100.41493775933613  C 39.834024896265646 100.41493775933613  57.334688796680446 142.66531120331945  57.334688796680446 142.66531120331945  C 57.334688796680446 142.66531120331945  100.41493775933601 160.16597510373447  100.41493775933601 160.16597510373447  C 100.41493775933601 160.16597510373447  142.66531120331956 142.66531120331945  142.66531120331956 142.66531120331945  C 142.66531120331956 142.66531120331945  160.16597510373435 100.41493775933613  160.16597510373435 100.41493775933613  C 160.16597510373435 100.41493775933613  142.66531120331956 57.33468879668055  142.66531120331956 57.33468879668055  Z M 156.7487966804979 43.25120331950211  C 156.7487966804979 43.25120331950211  100.41493775933601 19.917012448132766  100.41493775933601 19.917012448132766  C 100.41493775933601 19.917012448132766  43.25120331950211 43.25120331950211  43.25120331950211 43.25120331950211  C 43.25120331950211 43.25120331950211  19.91701244813271 100.41493775933613  19.91701244813271 100.41493775933613  C 19.91701244813271 100.41493775933613  43.25120331950211 156.7487966804979  43.25120331950211 156.7487966804979  C 43.25120331950211 156.7487966804979  100.41493775933601 180.0829875518673  100.41493775933601 180.0829875518673  C 100.41493775933601 180.0829875518673  156.7487966804979 156.7487966804979  156.7487966804979 156.7487966804979  C 156.7487966804979 156.7487966804979  180.0829875518673 100.41493775933613  180.0829875518673 100.41493775933613  C 180.0829875518673 100.41493775933613  156.7487966804979 43.25120331950211  156.7487966804979 43.25120331950211  Z M 170.83219917012457 29.167800829875546  C 170.83219917012457 29.167800829875546  100.41493775933601 0  100.41493775933601 0  C 100.41493775933601 0  29.167800829875436 29.167800829875546  29.167800829875436 29.167800829875546  C 29.167800829875436 29.167800829875546  0 100.41493775933613  0 100.41493775933613  C 0 100.41493775933613  29.167800829875436 170.83219917012445  29.167800829875436 170.83219917012445  C 29.167800829875436 170.83219917012445  100.41493775933601 200  100.41493775933601 200  C 100.41493775933601 200  170.83219917012457 170.83219917012445  170.83219917012457 170.83219917012445  C 170.83219917012457 170.83219917012445  200 100.41493775933613  200 100.41493775933613  C 200 100.41493775933613  170.83219917012457 29.167800829875546  170.83219917012457 29.167800829875546  Z " fill-rule="evenodd" />
    </mask>
  </defs>
  <g transform="matrix(1 0 0 1 -136 -476 )">
    <path d="M 114.49842323651455 85.50157676348545  C 114.49842323651455 85.50157676348545  100.41493775933601 79.66804979253106  100.41493775933601 79.66804979253106  C 100.41493775933601 79.66804979253106  85.50157676348545 85.50157676348545  85.50157676348545 85.50157676348545  C 85.50157676348545 85.50157676348545  79.66804979253106 100.41493775933613  79.66804979253106 100.41493775933613  C 79.66804979253106 100.41493775933613  85.50157676348545 114.49842323651455  85.50157676348545 114.49842323651455  C 85.50157676348545 114.49842323651455  100.41493775933601 120.33195020746894  100.41493775933601 120.33195020746894  C 100.41493775933601 120.33195020746894  114.49842323651455 114.49842323651455  114.49842323651455 114.49842323651455  C 114.49842323651455 114.49842323651455  120.33195020746894 100.41493775933613  120.33195020746894 100.41493775933613  C 120.33195020746894 100.41493775933613  114.49842323651455 85.50157676348545  114.49842323651455 85.50157676348545  Z M 128.581825726141 71.41817427385888  C 128.581825726141 71.41817427385888  100.41493775933601 59.75103734439835  100.41493775933601 59.75103734439835  C 100.41493775933601 59.75103734439835  71.418174273859 71.41817427385888  71.418174273859 71.41817427385888  C 71.418174273859 71.41817427385888  59.75103734439835 100.41493775933613  59.75103734439835 100.41493775933613  C 59.75103734439835 100.41493775933613  71.418174273859 128.581825726141  71.418174273859 128.581825726141  C 71.418174273859 128.581825726141  100.41493775933601 140.24896265560164  100.41493775933601 140.24896265560164  C 100.41493775933601 140.24896265560164  128.581825726141 128.581825726141  128.581825726141 128.581825726141  C 128.581825726141 128.581825726141  140.24896265560164 100.41493775933613  140.24896265560164 100.41493775933613  C 140.24896265560164 100.41493775933613  128.581825726141 71.41817427385888  128.581825726141 71.41817427385888  Z M 142.66531120331956 57.33468879668055  C 142.66531120331956 57.33468879668055  100.41493775933601 39.83402489626553  100.41493775933601 39.83402489626553  C 100.41493775933601 39.83402489626553  57.334688796680446 57.33468879668055  57.334688796680446 57.33468879668055  C 57.334688796680446 57.33468879668055  39.834024896265646 100.41493775933613  39.834024896265646 100.41493775933613  C 39.834024896265646 100.41493775933613  57.334688796680446 142.66531120331945  57.334688796680446 142.66531120331945  C 57.334688796680446 142.66531120331945  100.41493775933601 160.16597510373447  100.41493775933601 160.16597510373447  C 100.41493775933601 160.16597510373447  142.66531120331956 142.66531120331945  142.66531120331956 142.66531120331945  C 142.66531120331956 142.66531120331945  160.16597510373435 100.41493775933613  160.16597510373435 100.41493775933613  C 160.16597510373435 100.41493775933613  142.66531120331956 57.33468879668055  142.66531120331956 57.33468879668055  Z M 156.7487966804979 43.25120331950211  C 156.7487966804979 43.25120331950211  100.41493775933601 19.917012448132766  100.41493775933601 19.917012448132766  C 100.41493775933601 19.917012448132766  43.25120331950211 43.25120331950211  43.25120331950211 43.25120331950211  C 43.25120331950211 43.25120331950211  19.91701244813271 100.41493775933613  19.91701244813271 100.41493775933613  C 19.91701244813271 100.41493775933613  43.25120331950211 156.7487966804979  43.25120331950211 156.7487966804979  C 43.25120331950211 156.7487966804979  100.41493775933601 180.0829875518673  100.41493775933601 180.0829875518673  C 100.41493775933601 180.0829875518673  156.7487966804979 156.7487966804979  156.7487966804979 156.7487966804979  C 156.7487966804979 156.7487966804979  180.0829875518673 100.41493775933613  180.0829875518673 100.41493775933613  C 180.0829875518673 100.41493775933613  156.7487966804979 43.25120331950211  156.7487966804979 43.25120331950211  Z M 170.83219917012457 29.167800829875546  C 170.83219917012457 29.167800829875546  100.41493775933601 0  100.41493775933601 0  C 100.41493775933601 0  29.167800829875436 29.167800829875546  29.167800829875436 29.167800829875546  C 29.167800829875436 29.167800829875546  0 100.41493775933613  0 100.41493775933613  C 0 100.41493775933613  29.167800829875436 170.83219917012445  29.167800829875436 170.83219917012445  C 29.167800829875436 170.83219917012445  100.41493775933601 200  100.41493775933601 200  C 100.41493775933601 200  170.83219917012457 170.83219917012445  170.83219917012457 170.83219917012445  C 170.83219917012457 170.83219917012445  200 100.41493775933613  200 100.41493775933613  C 200 100.41493775933613  170.83219917012457 29.167800829875546  170.83219917012457 29.167800829875546  Z " fill-rule="nonzero" fill="#ffffff" stroke="none" fill-opacity="0" transform="matrix(1 0 0 1 136 476 )" />
    <path d="M 114.49842323651455 85.50157676348545  C 114.49842323651455 85.50157676348545  100.41493775933601 79.66804979253106  100.41493775933601 79.66804979253106  C 100.41493775933601 79.66804979253106  85.50157676348545 85.50157676348545  85.50157676348545 85.50157676348545  C 85.50157676348545 85.50157676348545  79.66804979253106 100.41493775933613  79.66804979253106 100.41493775933613  C 79.66804979253106 100.41493775933613  85.50157676348545 114.49842323651455  85.50157676348545 114.49842323651455  C 85.50157676348545 114.49842323651455  100.41493775933601 120.33195020746894  100.41493775933601 120.33195020746894  C 100.41493775933601 120.33195020746894  114.49842323651455 114.49842323651455  114.49842323651455 114.49842323651455  C 114.49842323651455 114.49842323651455  120.33195020746894 100.41493775933613  120.33195020746894 100.41493775933613  C 120.33195020746894 100.41493775933613  114.49842323651455 85.50157676348545  114.49842323651455 85.50157676348545  Z " stroke-width="2" stroke="#2391ff" fill="none" stroke-opacity="0.4666666666666667" transform="matrix(1 0 0 1 136 476 )" mask="url(#clip944)" />
    <path d="M 128.581825726141 71.41817427385888  C 128.581825726141 71.41817427385888  100.41493775933601 59.75103734439835  100.41493775933601 59.75103734439835  C 100.41493775933601 59.75103734439835  71.418174273859 71.41817427385888  71.418174273859 71.41817427385888  C 71.418174273859 71.41817427385888  59.75103734439835 100.41493775933613  59.75103734439835 100.41493775933613  C 59.75103734439835 100.41493775933613  71.418174273859 128.581825726141  71.418174273859 128.581825726141  C 71.418174273859 128.581825726141  100.41493775933601 140.24896265560164  100.41493775933601 140.24896265560164  C 100.41493775933601 140.24896265560164  128.581825726141 128.581825726141  128.581825726141 128.581825726141  C 128.581825726141 128.581825726141  140.24896265560164 100.41493775933613  140.24896265560164 100.41493775933613  C 140.24896265560164 100.41493775933613  128.581825726141 71.41817427385888  128.581825726141 71.41817427385888  Z " stroke-width="2" stroke="#2391ff" fill="none" stroke-opacity="0.4666666666666667" transform="matrix(1 0 0 1 136 476 )" mask="url(#clip944)" />
    <path d="M 142.66531120331956 57.33468879668055  C 142.66531120331956 57.33468879668055  100.41493775933601 39.83402489626553  100.41493775933601 39.83402489626553  C 100.41493775933601 39.83402489626553  57.334688796680446 57.33468879668055  57.334688796680446 57.33468879668055  C 57.334688796680446 57.33468879668055  39.834024896265646 100.41493775933613  39.834024896265646 100.41493775933613  C 39.834024896265646 100.41493775933613  57.334688796680446 142.66531120331945  57.334688796680446 142.66531120331945  C 57.334688796680446 142.66531120331945  100.41493775933601 160.16597510373447  100.41493775933601 160.16597510373447  C 100.41493775933601 160.16597510373447  142.66531120331956 142.66531120331945  142.66531120331956 142.66531120331945  C 142.66531120331956 142.66531120331945  160.16597510373435 100.41493775933613  160.16597510373435 100.41493775933613  C 160.16597510373435 100.41493775933613  142.66531120331956 57.33468879668055  142.66531120331956 57.33468879668055  Z " stroke-width="2" stroke="#2391ff" fill="none" stroke-opacity="0.4666666666666667" transform="matrix(1 0 0 1 136 476 )" mask="url(#clip944)" />
    <path d="M 156.7487966804979 43.25120331950211  C 156.7487966804979 43.25120331950211  100.41493775933601 19.917012448132766  100.41493775933601 19.917012448132766  C 100.41493775933601 19.917012448132766  43.25120331950211 43.25120331950211  43.25120331950211 43.25120331950211  C 43.25120331950211 43.25120331950211  19.91701244813271 100.41493775933613  19.91701244813271 100.41493775933613  C 19.91701244813271 100.41493775933613  43.25120331950211 156.7487966804979  43.25120331950211 156.7487966804979  C 43.25120331950211 156.7487966804979  100.41493775933601 180.0829875518673  100.41493775933601 180.0829875518673  C 100.41493775933601 180.0829875518673  156.7487966804979 156.7487966804979  156.7487966804979 156.7487966804979  C 156.7487966804979 156.7487966804979  180.0829875518673 100.41493775933613  180.0829875518673 100.41493775933613  C 180.0829875518673 100.41493775933613  156.7487966804979 43.25120331950211  156.7487966804979 43.25120331950211  Z " stroke-width="2" stroke="#2391ff" fill="none" stroke-opacity="0.4666666666666667" transform="matrix(1 0 0 1 136 476 )" mask="url(#clip944)" />
    <path d="M 170.83219917012457 29.167800829875546  C 170.83219917012457 29.167800829875546  100.41493775933601 0  100.41493775933601 0  C 100.41493775933601 0  29.167800829875436 29.167800829875546  29.167800829875436 29.167800829875546  C 29.167800829875436 29.167800829875546  0 100.41493775933613  0 100.41493775933613  C 0 100.41493775933613  29.167800829875436 170.83219917012445  29.167800829875436 170.83219917012445  C 29.167800829875436 170.83219917012445  100.41493775933601 200  100.41493775933601 200  C 100.41493775933601 200  170.83219917012457 170.83219917012445  170.83219917012457 170.83219917012445  C 170.83219917012457 170.83219917012445  200 100.41493775933613  200 100.41493775933613  C 200 100.41493775933613  170.83219917012457 29.167800829875546  170.83219917012457 29.167800829875546  Z " stroke-width="2" stroke="#2391ff" fill="none" stroke-opacity="0.4666666666666667" transform="matrix(1 0 0 1 136 476 )" mask="url(#clip944)" />
  </g>
</svg>