<?xml version="1.0" encoding="utf-8"?>
<svg version="1.1" xmlns:xlink="http://www.w3.org/1999/xlink" width="17px" height="17px" xmlns="http://www.w3.org/2000/svg">
  <g transform="matrix(1 0 0 1 -216 -535 )">
    <path d="M 224.5 535  C 229.26 535  233 538.74  233 543.5  C 233 548.26  229.26 552  224.5 552  C 219.74 552  216 548.26  216 543.5  C 216 538.74  219.74 535  224.5 535  Z " fill-rule="nonzero" fill="#ffc328" stroke="none" fill-opacity="0.2" />
    <path d="M 224.5 535.5  C 228.98 535.5  232.5 539.02  232.5 543.5  C 232.5 547.98  228.98 551.5  224.5 551.5  C 220.02 551.5  216.5 547.98  216.5 543.5  C 216.5 539.02  220.02 535.5  224.5 535.5  Z " stroke-width="1" stroke="#ffc328" fill="none" />
  </g>
</svg>