<?xml version="1.0" encoding="utf-8"?>
<svg version="1.1" xmlns:xlink="http://www.w3.org/1999/xlink" width="14px" height="14px" xmlns="http://www.w3.org/2000/svg">
  <g transform="matrix(1 0 0 1 -247 -585 )">
    <path d="M 254 585  C 257.92 585  261 588.08  261 592  C 261 595.92  257.92 599  254 599  C 250.08 599  247 595.92  247 592  C 247 588.08  250.08 585  254 585  Z " fill-rule="nonzero" fill="#5ad8a6" stroke="none" fill-opacity="0.2" />
    <path d="M 254 585.5  C 257.64 585.5  260.5 588.36  260.5 592  C 260.5 595.64  257.64 598.5  254 598.5  C 250.36 598.5  247.5 595.64  247.5 592  C 247.5 588.36  250.36 585.5  254 585.5  Z " stroke-width="1" stroke="#5ad8a6" fill="none" />
  </g>
</svg>