<?xml version="1.0" encoding="utf-8"?>
<svg version="1.1" xmlns:xlink="http://www.w3.org/1999/xlink" width="80px" height="35px" xmlns="http://www.w3.org/2000/svg">
  <g transform="matrix(1 0 0 1 -787 -971 )">
    <path d="M 788 974  A 2 2 0 0 1 790 972 L 864 972  A 2 2 0 0 1 866 974 L 866 1003  A 2 2 0 0 1 864 1005 L 790 1005  A 2 2 0 0 1 788 1003 L 788 974  Z " fill-rule="nonzero" fill="#2391ff" stroke="none" fill-opacity="0.09803921568627451" />
    <path d="M 787.5 974  A 2.5 2.5 0 0 1 790 971.5 L 864 971.5  A 2.5 2.5 0 0 1 866.5 974 L 866.5 1003  A 2.5 2.5 0 0 1 864 1005.5 L 790 1005.5  A 2.5 2.5 0 0 1 787.5 1003 L 787.5 974  Z " stroke-width="1" stroke="#2391ff" fill="none" stroke-opacity="0.4980392156862745" />
  </g>
</svg>