<?xml version="1.0" encoding="utf-8"?>
<svg version="1.1" xmlns:xlink="http://www.w3.org/1999/xlink" width="60px" height="60px" xmlns="http://www.w3.org/2000/svg">
  <g transform="matrix(1 0 0 1 -306 -9 )">
    <path d="M 336 9.5  C 352.52 9.5  365.5 22.479999999999997  365.5 39  C 365.5 55.52  352.52 68.5  336 68.5  C 319.48 68.5  306.5 55.52  306.5 39  C 306.5 22.479999999999997  319.48 9.5  336 9.5  Z " fill-rule="nonzero" fill="#ffffff" stroke="none" />
    <path d="M 336 9.5  C 352.52 9.5  365.5 22.479999999999997  365.5 39  C 365.5 55.52  352.52 68.5  336 68.5  C 319.48 68.5  306.5 55.52  306.5 39  C 306.5 22.479999999999997  319.48 9.5  336 9.5  Z " stroke-width="1" stroke="#1b88d7" fill="none" stroke-opacity="0.996078431372549" />
  </g>
</svg>