<?xml version="1.0" encoding="utf-8"?>
<svg version="1.1" xmlns:xlink="http://www.w3.org/1999/xlink" width="15px" height="15px" xmlns="http://www.w3.org/2000/svg">
  <g transform="matrix(1 0 0 1 -531 -173 )">
    <path d="M 0.11566558441552388 6.051129229657363  C 0.11566558441552388 2.7729087928669287  2.772930194805099 0.11566558441563757  6.051129229657022 0.11566558441563757  C 9.329349666446888 0.11566558441563757  11.986614276836463 2.7729301948052125  11.986614276836463 6.051129229657363  C 11.986614276836463 7.507616711901391  11.46153913225453 8.842177353896204  10.590865494368927 9.875398710176341  L 14.119724025974051 13.518415178571558  L 13.085132945667624 14.585879635501442  L 9.498275162337677 10.883515593293396  C 8.492923686795734 11.602786942373314  7.287284129569571 11.988595792470278  6.051129229657022 11.986614276836463  C 2.772930194805099 11.986614276836463  0.11566558441552388 9.329349666446888  0.11566558441552388 6.051129229657363  Z M 10.616890250862411 6.051129229657363  C 10.616890250862411 3.5294672978388917  8.572791161475266 1.485389610389575  6.051129229657022 1.485389610389575  C 3.5294886997768344 1.485389610389575  1.485389610389575 3.5294886997767208  1.485389610389575 6.051129229657363  C 1.485389610389575 8.572769759537096  3.5294886997768344 10.616890250862525  6.051129229657022 10.616890250862525  C 8.572769759537323 10.616890250862525  10.616890250862411 8.57279116147538  10.616890250862411 6.051129229657363  Z " fill-rule="nonzero" fill="#a7b6c4" stroke="none" transform="matrix(1 0 0 1 531 173 )" />
  </g>
</svg>